<?xml version="1.0" encoding="utf-8"?>
<!-- Generator: Adobe Illustrator 26.0.3, SVG Export Plug-In . SVG Version: 6.00 Build 0)  -->
<svg version="1.1" id="Layer_1" xmlns="http://www.w3.org/2000/svg" xmlns:xlink="http://www.w3.org/1999/xlink" x="0px" y="0px"
	 viewBox="0 0 351.1 440.9" style="enable-background:new 0 0 351.1 440.9;" xml:space="preserve">
<style type="text/css">
	.st0{fill:#151C28;}
	.st1{fill:#8188A6;}
	.st2{fill:#151515;}
	.st3{fill:#FFFFFF;}
	.st4{fill:#424245;}
	.st5{fill:#EAEBED;}
	.st6{fill:#B0B2B5;}
	.st7{fill:#403F42;}
</style>
<g id="Layer_2_00000054979276879438974210000000168529412870921093_">
	<g id="robot_left_arm">
		<path class="st0" d="M35.6,281.4c1.7,1.4,4.1,1.4,5.8,0c0.6-1.3,0.6-2.8,0-4.1l-6.7-10.1l5.1-8.3H50l4.7,7.6l-5.1,9.4
			c-1.2,1.6-1.5,3.8-0.8,5.7c0.7,0.7,1.7,1.1,2.7,1.1c1.3,0,2.5-0.7,3.3-1.8c2.8-4.7,5.6-9.4,8.3-14.1l-10.4-15.8H36.5L26.5,267
			L35.6,281.4z"/>
		<circle class="st1" cx="31.6" cy="267" r="5.1"/>
		<circle class="st1" cx="57.9" cy="267" r="5.1"/>
		<path class="st0" d="M77.2,160.6c0,0-6.6,31.8-10.2,40L48.7,199c0,0,6.2-35.7,8.5-44.6L77.2,160.6z"/>
		<path class="st1" d="M54.1,253.5l18.9-39c0,0,3-14.2-11.6-21.5c0,0-17.2-4.7-22.3,6c0,2.1-3,5.6-3,12c0,0-3,32.6-2.1,42.5
			L54.1,253.5z"/>
		<circle class="st0" cx="72.3" cy="160.4" r="20.4"/>
	</g>
	<g id="robot_right_arm">
		<path class="st0" d="M215.3,160.6c0,0,6.6,31.8,10.1,40l18.4-1.6c0,0-6.2-35.7-8.5-44.6L215.3,160.6z"/>
		<path class="st0" d="M239.3,281.4c1.7,1.4,4.1,1.4,5.8,0c0.6-1.3,0.6-2.8,0-4.1l-6.7-10.1l5.1-8.3h10.2l4.7,7.6l-5.1,9.5
			c-1.2,1.6-1.5,3.8-0.8,5.7c0.7,0.7,1.7,1.1,2.6,1.1c1.3-0.1,2.5-0.7,3.3-1.9c2.8-4.7,5.6-9.4,8.3-14.1
			c-3.4-5.2-6.9-10.5-10.4-15.8h-16.2l-9.9,15.9L239.3,281.4z"/>
		<circle class="st1" cx="235.4" cy="267" r="5.1"/>
		<circle class="st1" cx="261.6" cy="267" r="5.1"/>
		<circle class="st0" cx="222.1" cy="159.7" r="20.4"/>
		<path class="st1" d="M238.5,253.5l-18.9-39c0,0-3-14.2,11.6-21.5c0,0,17.2-4.7,22.3,6c0,2.1,3,5.6,3,12c0,0,3,32.6,2.1,42.5
			L238.5,253.5z"/>
	</g>
	<g id="robot_face">
		<rect x="127.5" y="94.5" class="st0" width="38.3" height="25.7"/>
		<path class="st2" d="M81.3,78.7c0,0,17.8,22.4,66.4,23.4c0,0,41.8,0,63.3-23.4l11.1-7c0,0-1-47.3-45.8-54.7c0,0-24,17.9-28.7,16.9
			S113.1,15,113.1,15S81.3,30.4,74.3,48.3S81.3,78.7,81.3,78.7z"/>
		<path class="st1" d="M66.6,78.4l14.7,0.2V53.3c0,0,6.5-23.4,29.4-29.4c0.7-0.2,1.5-0.2,2.2,0c0,0,9.5,16.4,33.8,16.4
			c13.2,0.2,25.7-5.9,33.6-16.5c0,0,21.3-0.5,30.7,27.4l1.4,26.6l12,0.8c2.8-0.3,5-2.5,5.2-5.2V45.3c0,0-1.5-4.2-5-5.2l-6-0.2
			c0,0-7.9-37.9-71.9-39.9c0,0-56-2.7-72.2,39.3c0,0-9-0.2-10,5.7v28.2C64.5,73.2,63.6,76.7,66.6,78.4z"/>
	</g>
	<g id="robot_body">
		<path class="st0" d="M119.4,264.6h55.3c3.4,0,6.2,2.8,6.2,6.2v59.7c0,3.4-2.8,6.2-6.2,6.2h-55.3c-3.4,0-6.2-2.8-6.2-6.2v-59.7
			C113.2,267.4,116,264.6,119.4,264.6z"/>
		<path class="st2" d="M216.6,142.3c0,0,2.5-27.1-33.9-33.9h-72.1c0,0-30.2,2.5-33.9,34.5v104.7c0,0-3.7,39.4,33.9,39.4h72.7
			c0,0,34.5,1.2,33.3-38.8V142.3z M197.9,243.3c0,2.1-1.7,3.8-3.8,3.8h-95c-2.1,0-3.8-1.7-3.8-3.8v-92c0-2.1,1.7-3.8,3.8-3.8h95
			c2.1,0,3.8,1.7,3.8,3.8V243.3z"/>
	</g>
	<g id="robot_screen">
		<path class="st3" d="M99.1,147.6h95c2.1,0,3.8,1.7,3.8,3.8v92c0,2.1-1.7,3.8-3.8,3.8h-95c-2.1,0-3.8-1.7-3.8-3.8v-92
			C95.3,149.2,97,147.6,99.1,147.6z"/>
	</g>
	<g id="robot_wheels">
		<path class="st2" d="M201.3,356.3c0,0-1.1-15.5-20.4-26.9v1.1c0,3.4-2.8,6.2-6.2,6.2h-55.3c-3.4,0-6.2-2.8-6.2-6.2v-1.5
			c-11.6,5.9-19.8,17-21.9,29.9v44.9c0,0-1,6.6,7,9.9h95.1c0,0,6.5,1.1,10-9.9C203.3,403.9,206.3,372.7,201.3,356.3z"/>
		<g id="left_wheel">
			<circle cx="85.4" cy="379.2" r="54.7"/>
			<path class="st4" d="M137.4,373.7l8.8-0.5c-0.2-16.4-7.8-25.5-7.8-25.5l-8.1,5c-0.6-1.8-5.7-8.5-5.7-8.5l6.4-5.9
				c-7.2-8.9-21-15.5-21-15.5l-3.5,8.5c-1.3-0.9-9.4-3.5-9.4-3.5l0.9-8.9c-8.4-1.7-17.1-1.9-25.6-0.4c0.9,2.4,0.9,9.8,0.9,9.8
				c-3.1,0.6-6.2,1.5-9.2,2.6l-3.7-8c-10,3.5-20.9,15.1-20.9,15.1l7,6.8l-6.5,7.6l-6.8-4.6c-8.3,7-8.8,25.4-8.8,25.4l8.9-0.2
				l-0.2,11.2l-9.2,0.4c1.3,9,4.2,17.7,8.7,25.6l7-5.9l6.8,9.6l-6.8,6.1c6.8,8.1,21.4,15.5,21.4,15.5l3.1-8.5
				c3.2,1.3,6.4,2.4,9.8,3.1l-1.5,9.2c16.8,2.2,25.8-0.5,25.8-0.5l-1.5-8.7c2.8-0.4,10-3.5,10-3.5l3.5,8.9
				c17.7-9.4,20.8-15.9,20.8-15.9l-6.3-6.3l6.5-8.3l7.2,5.2c4.4-7.8,7-16.4,7.8-25.3l-8.7-0.7L137.4,373.7z M85.4,426.6
				c-26.3,0-47.6-21.3-47.6-47.6c0-26.3,21.3-47.6,47.6-47.6c26.3,0,47.6,21.3,47.6,47.6c0,0,0,0,0,0
				C133,405.3,111.7,426.6,85.4,426.6L85.4,426.6z"/>
			<circle class="st5" cx="85.1" cy="379.3" r="34.7"/>
			<circle class="st6" cx="85.4" cy="379.3" r="10.2"/>
			<circle class="st7" cx="85.4" cy="379.2" r="6.6"/>
		</g>
		<g id="right_wheel">
			<circle cx="210.5" cy="379.4" r="54.7"/>
			<path class="st4" d="M239.1,423.1l4.5,7.6c14.5-7.6,19.1-18.5,19.1-18.5l-8.1-5c1.4-1.3,4.9-9,4.9-9l8.2,3
				c4.6-10.4,4.2-25.8,4.2-25.8l-9.1,0.8c0.2-1.6-1.2-10-1.2-10l8.3-3.2c-2.3-8.3-6.2-16.1-11.4-23c-1.7,1.9-8.3,5.3-8.3,5.3
				c-1.8-2.6-6.5-7-6.5-7l5.4-6.9c-7.7-7.3-23-11.6-23-11.6l-2.9,9.4l-9.7-2.3l0.9-8.1c-10-4.2-26.6,3.7-26.6,3.7l4.2,7.8l-10.1,5
				l-4.5-8c-7.4,5.3-13.8,11.8-18.9,19.4l8.4,3.5l-5.4,10.5l-8.5-3.3c-4.1,9.8-4,26.1-4,26.1l9-1.1c0.3,3.4,0.8,6.8,1.7,10.1
				l-8.9,2.9c5.7,16,12.3,22.7,12.3,22.7l7-5.3c1.6,2.3,7.7,7.3,7.7,7.3l-6.3,7.2c16.4,11.5,23.6,11.3,23.6,11.3l2.7-8.4l10.3,2
				l-1.3,8.7c8.9,0.3,17.8-1.3,26-4.6l-3.3-8.1L239.1,423.1z M168.3,401c-12-23.4-2.8-52,20.6-64s52-2.8,64,20.6
				c12,23.4,2.8,52-20.6,64c0,0,0,0,0,0C208.9,433.6,180.3,424.4,168.3,401z"/>
			<circle class="st5" cx="210.3" cy="379.1" r="34.7"/>
			<circle class="st6" cx="210.4" cy="379.4" r="10.2"/>
			<circle class="st7" cx="210.5" cy="379.4" r="6.6"/>
		</g>
	</g>
	<g id="robot_mouth">
		<path class="st3" d="M133.8,83.2v4.7c0,0,3.4,7.1,12.9,6.7c5,0,9.8-2.4,12.7-6.5v-4.8H133.8z"/>
	</g>
	<g id="robot_eyes">
		<circle class="st3" cx="109.4" cy="59.5" r="16.2"/>
		<circle class="st3" cx="183.9" cy="59.5" r="16.2"/>
	</g>
</g>
</svg>
