<?xml version="1.0" encoding="utf-8"?>
<!-- Generator: Adobe Illustrator 26.0.1, SVG Export Plug-In . SVG Version: 6.00 Build 0)  -->
<svg version="1.1" id="Layer_1" xmlns="http://www.w3.org/2000/svg" xmlns:xlink="http://www.w3.org/1999/xlink" x="0px" y="0px"
	 viewBox="0 0 1280 1024" style="enable-background:new 0 0 1280 1024;" xml:space="preserve">
<style type="text/css">
	.st0{fill:#EDEDEC;}
	.st1{fill:#DBDBD9;}
	.st2{fill:#F7001D;}
	.st3{fill:#FFFFFF;}
</style>
<g id="Layer_1_00000169541862473573874640000016654659779688278968_">
	<path class="st0" d="M248.1,428.8L963.2,255L796.8,685.7L590.2,530.6L481.9,682.3c-13.1-69.2-25.9-136.6-38.9-205.7L248.1,428.8z"
		/>
</g>
<g id="Layer_2_00000010291983106497332830000010310079259091092669_">
	<polygon class="st1" points="442,475.9 963.2,255 590.2,530.6 481.2,683.4 	"/>
</g>
<g id="Layer_3">
	<polygon class="st1" points="592.3,532 484,683.8 627.4,558.7 	"/>
	
		<rect x="710.4" y="484.7" transform="matrix(0.5443 -0.8389 0.8389 0.5443 -102.743 884.137)" class="st2" width="104" height="103.9"/>
	<polygon class="st3" points="772.3,501.9 759.2,522.2 759,522.1 739,509 727.6,526.5 747.7,539.5 747.9,539.6 734.7,559.9 
		752.2,571.2 765.3,550.9 765.5,551 785.6,564.1 796.9,546.6 776.8,533.6 776.6,533.5 789.8,513.3 	"/>
</g>
</svg>
