<svg xmlns="http://www.w3.org/2000/svg" viewBox="0 0 363.84 428.44"><defs><style>.cls-1{fill:none;stroke:#000;stroke-miterlimit:10;stroke-width:3px;}.cls-2{fill:#b7caff;}.cls-3{fill:#8188a6;}</style></defs><g id="Layer_2" data-name="Layer 2"><g id="Layer_1-2" data-name="Layer 1"><line class="cls-1" x1="1.67" y1="189.37" x2="125.98" y2="427.75"/><line class="cls-1" x1="49.43" y1="211.21" x2="155.25" y2="424.42"/><line class="cls-1" x1="115.37" y1="206.76" x2="181.84" y2="420.74"/><line class="cls-1" x1="181.84" y1="195.11" x2="181.84" y2="420.74"/><line class="cls-1" x1="250.01" y1="208.79" x2="181.84" y2="420.74"/><line class="cls-1" x1="314.9" y1="207.18" x2="211.47" y2="420.74"/><line class="cls-1" x1="361.57" y1="188.47" x2="236.07" y2="427.75"/><path class="cls-2" d="M16.14,187.91A33.78,33.78,0,0,1,37,195.22a33.28,33.28,0,0,1,11.6,18.32h1.81a33.32,33.32,0,0,1,64.84,0H117a33.32,33.32,0,0,1,64.84,0h1.8a33.32,33.32,0,0,1,64.84,0h1.8a33.32,33.32,0,0,1,64.49-1.34,33.31,33.31,0,0,1,49.06-19.63,183.34,183.34,0,0,0-13.49-71.76C325.61,60.82,259.43-4.36,171.9.27,92.68,4.45,36.88,63.63,14.34,117A186.44,186.44,0,0,0,0,192.07,33.68,33.68,0,0,1,16.14,187.91Z"/><path class="cls-3" d="M181.84,0s-81.31-3.6-135,64.76c0,0-46.41,46.36-46.86,127.28,0,0,34.88-17.73,48.53,21.47C48.55,213.54,38.87,87.76,181.84,0Z"/><path class="cls-3" d="M181.84,0A400.5,400.5,0,0,0,147,66.46a407.38,407.38,0,0,0-30,147.08,34.51,34.51,0,0,1,7.44-13.87c9.23-10.41,21.92-11.56,25-11.76,0,0,26.13-.28,32.42,25.63C181.84,213.54,202.75,88.39,181.84,0Z"/><path class="cls-3" d="M181.84,0A213,213,0,0,1,220,44.63c43.48,68.15,34.82,142.12,30.29,168.91a33.33,33.33,0,0,1,36.5-25.38,32.62,32.62,0,0,1,28,24c2-17.1,6.1-70.2-26-124.82C253.11,26.81,197.05,5.31,181.84,0Z"/></g></g></svg>